<svg id="Layer_1" data-name="Layer 1" xmlns="http://www.w3.org/2000/svg" viewBox="0 0 250 112"><title>milson-pug-ranch-logo</title><path d="M63.55,17.15v41.4H55.08V34.74q0-.82,0-1.79t.16-2l-11,21.28a3.61,3.61,0,0,1-1.38,1.51,3.81,3.81,0,0,1-2,.51H39.62a3.81,3.81,0,0,1-2-.51,3.61,3.61,0,0,1-1.38-1.51l-11-21.34q.09,1,.14,2t.06,1.8V58.56H17V17.15h7.33q.62,0,1.09,0a2.81,2.81,0,0,1,.84.17,1.91,1.91,0,0,1,.67.44,3.48,3.48,0,0,1,.58.84l10.66,21q.57,1.08,1.09,2.25t1,2.39q.48-1.25,1-2.44t1.12-2.27L53,18.63a3.48,3.48,0,0,1,.58-.84,1.91,1.91,0,0,1,.67-.44,2.81,2.81,0,0,1,.84-.17q.47,0,1.09,0Z" transform="translate(0.5 0)" style="fill:#674336"/><path d="M81.22,58.56H71.56V17.15h9.66Z" transform="translate(0.5 0)" style="fill:#674336"/><path d="M114.19,50.88v7.67h-25V17.15h9.6V50.88Z" transform="translate(0.5 0)" style="fill:#674336"/><path d="M142,25.56a3.61,3.61,0,0,1-.89,1,2,2,0,0,1-1.21.34,3,3,0,0,1-1.41-.41l-1.71-.92a14.19,14.19,0,0,0-2.17-.92,8.7,8.7,0,0,0-2.79-.41,6,6,0,0,0-4,1.15,3.92,3.92,0,0,0-1.32,3.11,2.87,2.87,0,0,0,.8,2.07A6.85,6.85,0,0,0,129.32,32a22.4,22.4,0,0,0,3,1.09q1.66.5,3.4,1.11a30.41,30.41,0,0,1,3.4,1.43,11.34,11.34,0,0,1,3,2.1,9.82,9.82,0,0,1,2.09,3.11,11.07,11.07,0,0,1,.8,4.42,14.4,14.4,0,0,1-1,5.37A12.58,12.58,0,0,1,141,55a13.39,13.39,0,0,1-4.66,2.93A17.43,17.43,0,0,1,130.07,59a20.16,20.16,0,0,1-3.94-.4,23.37,23.37,0,0,1-3.88-1.12,22.49,22.49,0,0,1-3.52-1.72,15,15,0,0,1-2.87-2.22l2.84-4.49a2.85,2.85,0,0,1,.9-.81,2.34,2.34,0,0,1,1.21-.33,3.24,3.24,0,0,1,1.72.54l2,1.19A15.91,15.91,0,0,0,127,50.86a9.43,9.43,0,0,0,3.35.54,6.39,6.39,0,0,0,4.06-1.15,4.38,4.38,0,0,0,1.45-3.65,3.45,3.45,0,0,0-.8-2.36A6.16,6.16,0,0,0,133,42.73,19.26,19.26,0,0,0,130,41.68q-1.65-.45-3.38-1a24.7,24.7,0,0,1-3.38-1.36,10.68,10.68,0,0,1-2.94-2.13,10,10,0,0,1-2.09-3.3,13.09,13.09,0,0,1-.8-4.87,11.57,11.57,0,0,1,.94-4.55,11.74,11.74,0,0,1,2.76-3.95,13.55,13.55,0,0,1,4.46-2.77,16.48,16.48,0,0,1,6.05-1,22.67,22.67,0,0,1,3.71.3,19.5,19.5,0,0,1,3.42.88,18.77,18.77,0,0,1,3,1.39,14,14,0,0,1,2.52,1.83Z" transform="translate(0.5 0)" style="fill:#674336"/><path d="M191.2,37.84a22.25,22.25,0,0,1-1.55,8.35,19.75,19.75,0,0,1-11.14,11.2,24.73,24.73,0,0,1-17.6,0,19.76,19.76,0,0,1-11.18-11.2,22.24,22.24,0,0,1-1.55-8.35,22.24,22.24,0,0,1,1.55-8.35,19.86,19.86,0,0,1,4.38-6.71,20.23,20.23,0,0,1,6.81-4.46,23.15,23.15,0,0,1,8.81-1.62,22.88,22.88,0,0,1,8.8,1.63,20.29,20.29,0,0,1,6.78,4.48,20,20,0,0,1,4.36,6.71A22.18,22.18,0,0,1,191.2,37.84Zm-9.83,0a17.92,17.92,0,0,0-.8-5.53,11.71,11.71,0,0,0-2.29-4.16,9.86,9.86,0,0,0-3.65-2.61,12.57,12.57,0,0,0-4.92-.91,12.75,12.75,0,0,0-5,.91,9.83,9.83,0,0,0-3.67,2.61,11.7,11.7,0,0,0-2.29,4.16,17.89,17.89,0,0,0-.8,5.53,18,18,0,0,0,.8,5.56,11.7,11.7,0,0,0,2.29,4.16,9.7,9.7,0,0,0,3.67,2.6,12.93,12.93,0,0,0,5,.9,12.74,12.74,0,0,0,4.92-.9,9.73,9.73,0,0,0,3.65-2.6,11.72,11.72,0,0,0,2.29-4.16A18,18,0,0,0,181.36,37.84Z" transform="translate(0.5 0)" style="fill:#674336"/><path d="M233,17.15v41.4h-5a4.34,4.34,0,0,1-1.86-.36A4.55,4.55,0,0,1,224.64,57l-19.52-24.7q.11,1.11.16,2.15t0,1.95V58.56h-8.47V17.15h5.06a8.14,8.14,0,0,1,1.05.06,2.69,2.69,0,0,1,.77.21,2.56,2.56,0,0,1,.65.44,7.55,7.55,0,0,1,.71.77L224.79,43.5q-.14-1.19-.2-2.32t-.06-2.12V17.15Z" transform="translate(0.5 0)" style="fill:#674336"/><path d="M26.61,67.76a15.85,15.85,0,0,1,4.95.68A9.51,9.51,0,0,1,35,70.32a7.33,7.33,0,0,1,2,2.82,9.58,9.58,0,0,1,.64,3.52,10.34,10.34,0,0,1-.65,3.74,7.51,7.51,0,0,1-2,2.92,9.43,9.43,0,0,1-3.41,1.9,15.64,15.64,0,0,1-4.89.68H23.32V95H17V67.76Zm0,13.37a4.64,4.64,0,0,0,3.55-1.18,4.68,4.68,0,0,0,1.08-3.29A4.91,4.91,0,0,0,31,75a3.46,3.46,0,0,0-.85-1.32,3.82,3.82,0,0,0-1.44-.85,6.36,6.36,0,0,0-2.07-.3H23.32v8.64Z" transform="translate(0.5 0)" style="fill:#674336"/><path d="M52.16,90a5.81,5.81,0,0,0,2.27-.42,4.6,4.6,0,0,0,1.69-1.21,5.33,5.33,0,0,0,1.06-1.92,8.37,8.37,0,0,0,.36-2.57V67.76h6.32V83.9A12.6,12.6,0,0,1,63,88.5a10.31,10.31,0,0,1-2.33,3.61A10.51,10.51,0,0,1,57,94.46a14.63,14.63,0,0,1-9.78,0,10.5,10.5,0,0,1-3.68-2.36,10.21,10.21,0,0,1-2.32-3.61,12.73,12.73,0,0,1-.8-4.6V67.76h6.32V83.88a8.38,8.38,0,0,0,.36,2.57,5.43,5.43,0,0,0,1.06,1.93,4.54,4.54,0,0,0,1.69,1.22A5.81,5.81,0,0,0,52.16,90Z" transform="translate(0.5 0)" style="fill:#674336"/><path d="M81.89,80.88h9.69v11.5a14.32,14.32,0,0,1-4.46,2.23,17.54,17.54,0,0,1-4.95.69A17,17,0,0,1,76,94.25a14.1,14.1,0,0,1-4.72-2.92,12.8,12.8,0,0,1-3-4.41,14.24,14.24,0,0,1-1.07-5.54,15.09,15.09,0,0,1,1-5.6,12.61,12.61,0,0,1,2.89-4.4,13.1,13.1,0,0,1,4.54-2.88,16.44,16.44,0,0,1,6-1,17.35,17.35,0,0,1,3.2.28,15.75,15.75,0,0,1,2.76.77,12.73,12.73,0,0,1,2.31,1.16,12.45,12.45,0,0,1,1.87,1.46l-1.83,2.79a1.76,1.76,0,0,1-1.11.8,2,2,0,0,1-1.47-.34q-.75-.45-1.41-.78a8.59,8.59,0,0,0-1.36-.53,8.93,8.93,0,0,0-1.46-.3,14.35,14.35,0,0,0-1.72-.09,7.85,7.85,0,0,0-3.2.63,6.86,6.86,0,0,0-2.42,1.77,8,8,0,0,0-1.54,2.74,11,11,0,0,0-.54,3.56,11.45,11.45,0,0,0,.6,3.85A8,8,0,0,0,76,88.07a7.23,7.23,0,0,0,2.62,1.77,9,9,0,0,0,3.38.61A8.78,8.78,0,0,0,84,90.22a11.57,11.57,0,0,0,1.8-.6V85.49H83.16a1.31,1.31,0,0,1-.94-.32,1.06,1.06,0,0,1-.34-.8Z" transform="translate(0.5 0)" style="fill:#674336"/><path d="M126.75,95H121a2.43,2.43,0,0,1-2.28-1.2l-4.53-7.91a1.84,1.84,0,0,0-1.83-1h-1.61V95h-6.32V67.76h8.86a18.19,18.19,0,0,1,5,.61,9.46,9.46,0,0,1,3.4,1.69,6.41,6.41,0,0,1,1.92,2.56,8.5,8.5,0,0,1,.6,3.22,8.63,8.63,0,0,1-.36,2.51,7.73,7.73,0,0,1-1,2.18,8,8,0,0,1-1.71,1.79,9.16,9.16,0,0,1-2.35,1.29,5.72,5.72,0,0,1,1.16.79,5.57,5.57,0,0,1,1,1.13ZM113.32,80.57a6.5,6.5,0,0,0,2.2-.33,4,4,0,0,0,1.49-.91,3.46,3.46,0,0,0,.84-1.36,5.21,5.21,0,0,0,.26-1.67,3.51,3.51,0,0,0-1.17-2.8,5.44,5.44,0,0,0-3.62-1h-2.54v8.08Z" transform="translate(0.5 0)" style="fill:#674336"/><path d="M153.49,95h-4.9a2.14,2.14,0,0,1-1.33-.38,2.44,2.44,0,0,1-.77-1l-1.61-4.75H134.53l-1.61,4.75a2.28,2.28,0,0,1-.74.94,2.06,2.06,0,0,1-1.32.42h-4.94l10.55-27.25h6.47Zm-10-10.42-2.52-7.46q-.28-.71-.6-1.67t-.64-2.09q-.28,1.14-.6,2.11t-.6,1.68L136,84.59Z" transform="translate(0.5 0)" style="fill:#674336"/><path d="M179.43,67.76V95h-3.29a2.86,2.86,0,0,1-1.23-.23,3,3,0,0,1-1-.81L161.08,77.71q.07.73.1,1.41t0,1.28V95h-5.57V67.76H159a5.46,5.46,0,0,1,.69,0,1.78,1.78,0,0,1,.5.14,1.7,1.7,0,0,1,.43.29,5,5,0,0,1,.47.51l13,16.36q-.09-.78-.13-1.52t0-1.39V67.76Z" transform="translate(0.5 0)" style="fill:#674336"/><path d="M203.06,88a1.27,1.27,0,0,1,.45.08,1.23,1.23,0,0,1,.43.29L206.45,91a10.4,10.4,0,0,1-4.12,3.24,14.43,14.43,0,0,1-5.86,1.09,14,14,0,0,1-5.56-1.06,12,12,0,0,1-4.17-2.92,12.84,12.84,0,0,1-2.63-4.41,16.29,16.29,0,0,1-.92-5.54,15.35,15.35,0,0,1,1-5.6,13,13,0,0,1,2.79-4.4,12.54,12.54,0,0,1,4.3-2.88,14.4,14.4,0,0,1,5.52-1,14.74,14.74,0,0,1,2.89.27,14.1,14.1,0,0,1,2.53.75,11.57,11.57,0,0,1,2.17,1.15,11.4,11.4,0,0,1,1.76,1.46L204,73.95a2.71,2.71,0,0,1-.49.48,1.27,1.27,0,0,1-.79.21,1.39,1.39,0,0,1-.64-.15,7,7,0,0,1-.64-.36l-.74-.47a5.68,5.68,0,0,0-1-.47,7.9,7.9,0,0,0-1.29-.36,8.79,8.79,0,0,0-1.73-.15,7,7,0,0,0-2.87.58,6.26,6.26,0,0,0-2.24,1.69,7.82,7.82,0,0,0-1.46,2.73,12.17,12.17,0,0,0-.51,3.69,11.21,11.21,0,0,0,.57,3.72,8.17,8.17,0,0,0,1.55,2.74,6.58,6.58,0,0,0,2.29,1.69,6.84,6.84,0,0,0,2.8.58,13.39,13.39,0,0,0,1.57-.08,7.18,7.18,0,0,0,1.33-.28,5.42,5.42,0,0,0,1.16-.52,7.27,7.27,0,0,0,1.1-.83,2.22,2.22,0,0,1,.49-.31A1.28,1.28,0,0,1,203.06,88Z" transform="translate(0.5 0)" style="fill:#674336"/><path d="M233,67.76V95h-6.36V83.48H215.57V95h-6.36V67.76h6.36V79.15h11.07V67.76Z" transform="translate(0.5 0)" style="fill:#674336"/><rect width="250" height="112" style="fill:none"/></svg>