<svg id="Layer_1" data-name="Layer 1" xmlns="http://www.w3.org/2000/svg" viewBox="0 0 118 64"><title>Artboard 1</title><rect width="118" height="64" style="fill:#d8f1ff"/><path d="M13.37,25.21c-.33-.83-.67-1.65-1-2.49a3.47,3.47,0,0,1,1.91-4.5,6.47,6.47,0,0,1,2.85-.75c1.43,0,2.21,1,2.65,2.32.16.48.27,1,.38,1.41,1.53.08,3,.12,4.53.25,1.69.15,3.37.38,5.06.57l4.76.51a3.67,3.67,0,0,1,.69.06A1.46,1.46,0,0,0,37,21.95a24.12,24.12,0,0,1,2.57-2.57c.52-.48,1-.88.87-1.72a1.41,1.41,0,0,1,.69-1.57c.44-.27.7-.82,1.09-1.18a2.66,2.66,0,0,1,1-.69c1.64-.43,3.29-.81,5-1.17a1.34,1.34,0,0,1,.81.14,9,9,0,0,1,1.38.84,3.81,3.81,0,0,0,2.94.88,3.38,3.38,0,0,1,1.07.08,1.53,1.53,0,0,1,1.31,1.51c0,1.89-.07,3.78-.17,5.67a1.57,1.57,0,0,1-.54,1,10.36,10.36,0,0,1-2.14,1.49,3.75,3.75,0,0,0-1.78,1.73c-.33.61-.68,1.21-1,1.84-.38.83-.82,1.54-1.83,1.7-.14,0-.34.32-.35.49A9.56,9.56,0,0,1,46,35.61c-.63.91-1.14,1.9-1.8,2.79A3.11,3.11,0,0,0,43.77,41c.28,1.4.55,2.81.87,4.2A1.33,1.33,0,0,0,46,46.45c.58,0,1.2,1.08,1.27,1.93.09,1.23,0,1.32-1.23,1.32a1.91,1.91,0,0,0-1.94.84,1.22,1.22,0,0,1-.89.39,21.42,21.42,0,0,1-2.91,0c-.31,0-.64-.37-.87-.65-1.86-2.2-2.43-4.91-2.93-7.63-.33-1.83-.28-1.9-2.08-1.83a7.43,7.43,0,0,1-5.27-1.95c-1.2-1-2.44-2-3.72-2.91a3.1,3.1,0,0,0-1.52-.43.91.91,0,0,0-.67.56c-.41,1.82-.8,3.65-1.1,5.49A8,8,0,0,0,22,44.45a3.67,3.67,0,0,0,3.25,3.24c.75.1,1,.72,1.14,1.38.35,1.38.16,1.74-1.21,1.86a24.11,24.11,0,0,1-2.81,0,1.17,1.17,0,0,1-.62-.26A13.41,13.41,0,0,1,17.64,46a2.53,2.53,0,0,1-.18-1c-.06-1.4-.06-2.8-.17-4.19a1,1,0,0,0-1.56-.73,21.4,21.4,0,0,0-3.3,2.38c-.89.83-.6,2.06-.55,3.16a2,2,0,0,0,1.31,1.81c.81.4.71,1.21.65,1.92s-.61.58-1.07.62-1,.11-1.54.14a1.38,1.38,0,0,1-1.62-1A.29.29,0,0,0,9.53,49c-1.64-1.45-1.15-3.39-1.18-5.21a9.29,9.29,0,0,0,0-1.32,4.35,4.35,0,0,1,1.54-3.93A3.94,3.94,0,0,0,11,35.94c.1-1.58.12-3.16.17-4.74A11.1,11.1,0,0,1,13.37,25.21ZM44.22,17l1,2.72c.17.46.32.94-.27,1.19s-1.24.66-1.9,0-1.33-1.22-2.15-2c-.84.78-1.71,1.53-2.48,2.37a2,2,0,0,0-.35,1.21,7.84,7.84,0,0,0,.23,1.2c.12,1,.21,2,.31,2.93l-.33.1a5.32,5.32,0,0,1-.54-.84c-.23-.57-.37-1.17-.61-1.73a3.61,3.61,0,0,0-.57-.74,6.65,6.65,0,0,0-.71.72c-.11.15-.09.4-.16.58-.15.37-.33.73-.57,1.27l-1-1.09a3.74,3.74,0,0,0-1.88-1.24A54.42,54.42,0,0,0,20.5,21.83a.73.73,0,0,0-.52.31c-.16.25-.21.58-.35.85-.48.88-.89,1.87-1.94,2.2a2.21,2.21,0,0,1-1.5-.11c-.58-.29-.64-.91-.46-1.56a1.09,1.09,0,0,0-.19-.77,1.25,1.25,0,0,1-.13-1.51,1.3,1.3,0,0,1,1.51-.69,1.23,1.23,0,0,1,.86,1.32,3.19,3.19,0,0,0,.15,1.06c.15.45.48.39.77.12a2.69,2.69,0,0,0-2.53-4.4A3.68,3.68,0,0,0,13.24,21a5.44,5.44,0,0,0,1.07,4.13,2.52,2.52,0,0,1,.24,1.21,15,15,0,0,0,0,3.13,30.35,30.35,0,0,0,3.15,7.65,5.83,5.83,0,0,1,.94,2.07,40.38,40.38,0,0,1,0,4.47,4.2,4.2,0,0,0,.74,3.1c.63.72,1.29,1.42,1.86,2.18,1,1.3,2.27,1.36,3.69,1.06.44-.09.6-.39.33-.73s-.65-.81-1-.88A4.52,4.52,0,0,1,21.92,47c-.79-.73-1.61-1.55-1.36-2.85.17-.88.2-1.79.33-2.68q.42-2.81.89-5.62a13,13,0,0,0,.05-5.51c-.52-2-.47-2,1.28-3.16l.42-.27c1,1.36,1.89,2.72,2.85,4.06a9.62,9.62,0,0,0,1.85,2.35c2.34,1.67,4.79,3.24,7.93,2a5.08,5.08,0,0,0,0,.75c.62,3,1.21,5.91,1.88,8.85A17.87,17.87,0,0,0,39,47.85a7.85,7.85,0,0,0,1.06,1.68,1.84,1.84,0,0,0,.83.62,3,3,0,0,0,1.08,0,1.5,1.5,0,0,0,1.43-.88c.25-.63-.2-1.07-.64-1.46a2.45,2.45,0,0,0-.5-.36,2.09,2.09,0,0,1-1.1-1.5c-.38-1.75-.8-3.49-1.07-5.26a3.33,3.33,0,0,1,.27-2.23c1.24-1.69,2.69-3.22,3-5.45,1.24,1,2,.85,2.52-.4a3.2,3.2,0,0,0,0-1.14c0-.9-.44-1.82.07-2.75l.89,1.18.29-.07c.23-1.88-.06-3.79.13-5.85.21.31.32.45.4.61.31.56.58,1.15.93,1.69s.62.58,1,0a12.44,12.44,0,0,0,1.05-1.71,2.09,2.09,0,0,0,.13-1.27c-.25-1-.7-1.92-.91-2.9s-.15-1.15,1-1.16c.54,0,.72-.28.65-.71a1,1,0,0,0-.45-.59c-1.3-.73-1.41-1.26-.42-2.27.31-.32.41-.55-.07-.84s-1-.8-1.55-1.14a1.22,1.22,0,0,0-.85-.19c-.88.23-1.74.54-2.71.85C46.54,16.07,44.84,16.34,44.22,17ZM12.7,30.62l-.24.08c0,.3-.09.61-.09.91,0,1-.06,1.95-.05,2.92a8.39,8.39,0,0,1-1.78,4.84,5.5,5.5,0,0,0-.86,1.54A15.21,15.21,0,0,0,9.08,44a11,11,0,0,0,.17,3.31c.17.69.87,1.26,1.36,1.86a.84.84,0,0,0,.54.21,6.12,6.12,0,0,0,1.17,0c.2,0,.54-.15.55-.27a1.31,1.31,0,0,0-.18-.78.8.8,0,0,0-.51-.32c-1-.18-1.25-.92-1.29-1.76s0-1.95,0-2.92a2.09,2.09,0,0,1,.73-1.63,23.41,23.41,0,0,0,2.25-2.44,4,4,0,0,0,.75-1.81,10.39,10.39,0,0,0-1.3-5.84A9.7,9.7,0,0,0,12.7,30.62ZM42.24,41.27c-.51.17-.85.49-.74,1.07.24,1.25.48,2.51.79,3.75a2.61,2.61,0,0,0,.61.87,10.14,10.14,0,0,1,1,1.2,1.69,1.69,0,0,0,2.36.69.59.59,0,0,0,.2-.52c-.2-.59-.45-1.18-1.25-1.12a1,1,0,0,1-1.09-.76C43.51,44.74,42.89,43,42.24,41.27Z" style="fill:#451a0c"/><circle cx="70" cy="20" r="3" style="fill:#451a0c"/><circle cx="85" cy="20" r="3" style="fill:#451a0c"/><circle cx="100" cy="20" r="3" style="fill:#451a0c"/></svg>